# xmcd
#
# Track frame offsets:
# 150
# 12340
# 25876
# 39278
# 51454
# 66447
# 79658
# 89416
# 103692
# 113031
#
# Disc length: 1639 seconds
#
#
# Revision: 0
# Processed by: cddbd v1.4PL0 Copyright (c) Steve Scherf et al.
# Submitted via: FreeRIP 2.35 
#
DISCID=7d06650a
DTITLE=Hank Williams and Jimmie Rodgers - Boxcar Willie Sings
DYEAR=1900
DGENRE=Country
TTITLE0=Pan American
TTITLE1=Lonesome Whistle
TTITLE2=Ramblin' man
TTITLE3=I can't help ut
TTITLE4=I'm sl lonesome I could Cry
TTITLE5=T for Texas
TTITLE6=Waitin' for a Train
TTITLE7=Hobo's meditation
TTITLE8=Hobo Bill
TTITLE9=T B Blues
EXTD=
EXTT0=
EXTT1=
EXTT2=
EXTT3=
EXTT4=
EXTT5=
EXTT6=
EXTT7=
EXTT8=
EXTT9=
PLAYORDER=
